<svg width="26" height="26" viewBox="0 0 26 26" fill="none" xmlns="http://www.w3.org/2000/svg">
<path fill-rule="evenodd" clip-rule="evenodd" d="M16.0994 2.55708C15.6519 2.50075 15.2511 2.829 15.2024 3.27425C15.1525 3.72058 15.4743 4.12141 15.9195 4.17125C19.5779 4.5775 22.4184 7.41583 22.829 11.0732C22.8756 11.4881 23.2266 11.7947 23.635 11.7947C23.6654 11.7947 23.6968 11.7925 23.7271 11.7892C24.1724 11.7405 24.493 11.3375 24.4432 10.8912C23.9481 6.4755 20.5172 3.04783 16.0994 2.55708Z" fill="#ADF0C5"/>
<path fill-rule="evenodd" clip-rule="evenodd" d="M19.003 11.1497C19.0788 11.5375 19.419 11.8062 19.7993 11.8062C19.8513 11.8062 19.9033 11.8019 19.9563 11.7921C20.3962 11.7065 20.6843 11.2786 20.5988 10.8388C20.1578 8.58328 18.4169 6.84236 16.1636 6.4047C15.7335 6.31911 15.2969 6.60728 15.2113 7.0482C15.1258 7.48803 15.4139 7.91486 15.8548 8.00045C17.4538 8.31136 18.691 9.54745 19.003 11.1497Z" fill="#ADF0C5"/>
<path fill-rule="evenodd" clip-rule="evenodd" d="M17.0906 13.5657C16.0095 14.0922 15.0735 14.5493 12.6392 12.1151C10.206 9.68083 10.661 8.74591 11.1886 7.66368C11.9524 6.09501 12.2611 4.66826 8.79228 1.81151C7.96353 1.13443 7.06437 0.874425 6.12512 1.05643C4.13937 1.42801 2.73645 3.63801 2.73861 3.63801C1.85895 4.86868 0.654277 8.56934 8.41853 16.3347C13.5254 21.4426 16.8751 22.6678 18.9074 22.6678C19.9647 22.6678 20.6656 22.3363 21.0708 22.0449C21.0925 22.0319 23.322 20.6507 23.699 18.6259C23.8745 17.6845 23.6188 16.7886 22.9406 15.9598C20.085 12.4942 18.6582 12.8019 17.0906 13.5657Z" fill="#ADF0C5"/>
</svg>
