<svg width="224" height="184" viewBox="0 0 224 184" fill="none" xmlns="http://www.w3.org/2000/svg">
<rect x="0.5" y="0.5" width="223" height="183" rx="15.5" stroke="black" stroke-opacity="0.2"/>
<path fill-rule="evenodd" clip-rule="evenodd" d="M126.583 85.5071V98.4128C126.583 103.194 123.59 106.567 118.808 106.567H105.113C100.331 106.567 97.3542 103.194 97.3542 98.4128V85.5071C97.3542 80.7254 100.347 77.3545 105.113 77.3545H118.808C123.59 77.3545 126.583 80.7254 126.583 85.5071Z" stroke="#CCCCCC" stroke-width="1.5" stroke-linecap="round" stroke-linejoin="round"/>
<path d="M101.362 99.0157L103.781 96.4617C104.622 95.5703 106.023 95.5276 106.916 96.3667C106.943 96.3937 108.4 97.8741 108.4 97.8741C109.279 98.7687 110.715 98.7829 111.609 97.9057C111.668 97.8487 115.305 93.4376 115.305 93.4376C116.242 92.2992 117.925 92.1361 119.065 93.075C119.141 93.1383 122.577 96.6644 122.577 96.6644" stroke="#CCCCCC" stroke-width="1.5" stroke-linecap="round" stroke-linejoin="round"/>
<path fill-rule="evenodd" clip-rule="evenodd" d="M109.328 87.4608C109.328 88.995 108.085 90.2379 106.551 90.2379C105.017 90.2379 103.774 88.995 103.774 87.4608C103.774 85.9265 105.017 84.6836 106.551 84.6836C108.085 84.6852 109.328 85.9265 109.328 87.4608Z" stroke="#CCCCCC" stroke-width="1.5" stroke-linecap="round" stroke-linejoin="round"/>
</svg>
