<svg width="88" height="39" viewBox="0 0 88 39" fill="none" xmlns="http://www.w3.org/2000/svg">
<path d="M35 17.5C35 14.0388 33.9736 10.6554 32.0507 7.77752C30.1278 4.89966 27.3947 2.65664 24.197 1.33211C20.9993 0.00757459 17.4806 -0.338984 14.0859 0.336258C10.6913 1.0115 7.57305 2.67821 5.12563 5.12563C2.67821 7.57305 1.0115 10.6913 0.336258 14.0859C-0.338984 17.4806 0.00757463 20.9993 1.33211 24.197C2.65664 27.3947 4.89966 30.1278 7.77752 32.0507C10.6554 33.9736 14.0388 35 17.5 35V17.5H35Z" fill="#01055B"/>
<path d="M19.1785 33.715L20.3185 33.43V21.27L19.1785 20.985V20.7H24.4985C26.6012 20.7 28.1085 21.0483 29.0205 21.745C29.9325 22.429 30.3885 23.4423 30.3885 24.785C30.3885 26.1277 29.9325 27.1473 29.0205 27.844C28.1085 28.528 26.6012 28.87 24.4985 28.87H23.4535V33.43L24.5935 33.715V34H19.1785V33.715ZM24.4985 28.395C25.2965 28.395 25.9362 28.091 26.4175 27.483C26.9115 26.875 27.1585 25.9757 27.1585 24.785C27.1585 23.607 26.9115 22.714 26.4175 22.106C25.9362 21.4853 25.2965 21.175 24.4985 21.175H23.4535V28.395H24.4985ZM31.8098 33.715L32.9498 33.43V25.07L31.8098 24.785V24.5H33.5198C34.2671 24.5 34.8561 24.7407 35.2868 25.222C35.4515 25.412 35.5908 25.6463 35.7048 25.925C35.8948 25.6463 36.1291 25.393 36.4078 25.165C37.0411 24.6583 37.7505 24.405 38.5358 24.405C39.2071 24.405 39.7075 24.5633 40.0368 24.88C40.3788 25.184 40.5498 25.6273 40.5498 26.21C40.5498 26.6407 40.4168 26.989 40.1508 27.255C39.8975 27.5083 39.5555 27.635 39.1248 27.635C38.9475 27.635 38.7701 27.6223 38.5928 27.597L38.3648 27.54V24.88C37.7188 24.88 37.1298 25.1333 36.5978 25.64C36.3445 25.8933 36.1418 26.1467 35.9898 26.4V33.43L37.1298 33.715V34H31.8098V33.715ZM46.4376 34.285C44.8669 34.285 43.6319 33.8417 42.7326 32.955C41.8459 32.0557 41.4026 30.8207 41.4026 29.25C41.4026 27.6793 41.8459 26.4507 42.7326 25.564C43.6319 24.6647 44.8669 24.215 46.4376 24.215C48.0082 24.215 49.2369 24.6647 50.1236 25.564C51.0229 26.4507 51.4726 27.6793 51.4726 29.25C51.4726 30.8207 51.0229 32.0557 50.1236 32.955C49.2369 33.8417 48.0082 34.285 46.4376 34.285ZM46.4376 33.905C46.9442 33.905 47.3686 33.5503 47.7106 32.841C48.0652 32.1317 48.2426 30.9347 48.2426 29.25C48.2426 27.5653 48.0652 26.3683 47.7106 25.659C47.3686 24.9497 46.9442 24.595 46.4376 24.595C45.9309 24.595 45.5002 24.9497 45.1456 25.659C44.8036 26.3683 44.6326 27.5653 44.6326 29.25C44.6326 30.9347 44.8036 32.1317 45.1456 32.841C45.5002 33.5503 45.9309 33.905 46.4376 33.905ZM52.9043 38.085C51.9543 38.085 51.2576 37.9267 50.8143 37.61C50.3709 37.2933 50.1493 36.85 50.1493 36.28C50.1493 35.8493 50.2823 35.501 50.5483 35.235C50.8016 34.9817 51.1436 34.855 51.5743 34.855C51.6756 34.855 51.7769 34.8613 51.8783 34.874C51.9796 34.8993 52.0493 34.912 52.0873 34.912L52.3343 34.95V37.61L52.4483 37.667C52.5749 37.6923 52.6636 37.705 52.7143 37.705C53.1069 37.705 53.4236 37.4643 53.6643 36.983C53.9176 36.5143 54.0443 35.71 54.0443 34.57V25.07L52.9043 24.785V24.5H55.3743C56.5143 24.5 57.0843 25.07 57.0843 26.21V34.57C57.0843 35.2413 56.9196 35.843 56.5903 36.375C56.2609 36.907 55.7796 37.325 55.1463 37.629C54.5129 37.933 53.7656 38.085 52.9043 38.085ZM55.3743 23.36C54.9943 23.36 54.6776 23.2333 54.4243 22.98C54.1709 22.7267 54.0443 22.41 54.0443 22.03C54.0443 21.65 54.1709 21.3333 54.4243 21.08C54.6776 20.8267 54.9943 20.7 55.3743 20.7C55.7543 20.7 56.0709 20.8267 56.3243 21.08C56.5776 21.3333 56.7043 21.65 56.7043 22.03C56.7043 22.41 56.5776 22.7267 56.3243 22.98C56.0709 23.2333 55.7543 23.36 55.3743 23.36ZM64.4007 34.285C62.7794 34.285 61.5191 33.8417 60.6197 32.955C59.7204 32.0557 59.2707 30.8207 59.2707 29.25C59.2707 28.224 59.4671 27.331 59.8597 26.571C60.2524 25.811 60.7971 25.2283 61.4937 24.823C62.2031 24.4177 63.0137 24.215 63.9257 24.215C64.8377 24.215 65.6357 24.386 66.3197 24.728C67.0164 25.07 67.5484 25.5323 67.9157 26.115C68.2957 26.685 68.4857 27.3183 68.4857 28.015C68.4857 28.3317 68.4541 28.604 68.3907 28.832L68.2957 29.155C67.7511 29.269 67.1621 29.364 66.5287 29.44C65.1987 29.63 63.8561 29.725 62.5007 29.725C62.5007 31.1943 62.7034 32.2457 63.1087 32.879C63.5141 33.4997 64.0714 33.81 64.7807 33.81C65.2747 33.81 65.7307 33.696 66.1487 33.468C66.5794 33.2273 66.9151 32.917 67.1557 32.537C67.4091 32.1443 67.5357 31.7453 67.5357 31.34H68.0107C68.0107 31.8467 67.8587 32.328 67.5547 32.784C67.2507 33.24 66.8264 33.6073 66.2817 33.886C65.7371 34.152 65.1101 34.285 64.4007 34.285ZM62.5007 29.25C63.3114 29.25 63.9701 29.2183 64.4767 29.155C64.6921 29.1423 64.9201 29.1107 65.1607 29.06C65.1734 28.9967 65.2051 28.8573 65.2557 28.642C65.3191 28.3253 65.3507 27.9897 65.3507 27.635C65.3507 26.5837 65.2114 25.8173 64.9327 25.336C64.6541 24.842 64.3184 24.595 63.9257 24.595C62.9757 24.595 62.5007 26.1467 62.5007 29.25ZM75.0326 34.285C73.4112 34.285 72.1509 33.8417 71.2516 32.955C70.3522 32.0557 69.9026 30.8207 69.9026 29.25C69.9026 27.6793 70.3522 26.4507 71.2516 25.564C72.1509 24.6647 73.4112 24.215 75.0326 24.215C76.1979 24.215 77.0719 24.4177 77.6546 24.823C78.2499 25.2283 78.5476 25.7223 78.5476 26.305C78.5476 26.7357 78.4146 27.084 78.1486 27.35C77.8952 27.6033 77.5532 27.73 77.1226 27.73C76.9452 27.73 76.7679 27.7173 76.5906 27.692L76.3626 27.635V24.785L76.0966 24.69C75.9066 24.6267 75.6786 24.595 75.4126 24.595C74.6906 24.595 74.1269 24.937 73.7216 25.621C73.3289 26.305 73.1326 27.5147 73.1326 29.25C73.1326 30.9347 73.3289 32.119 73.7216 32.803C74.1269 33.4743 74.6906 33.81 75.4126 33.81C75.9066 33.81 76.3626 33.696 76.7806 33.468C77.2112 33.2273 77.5469 32.917 77.7876 32.537C78.0409 32.1443 78.1676 31.7453 78.1676 31.34H78.6426C78.6426 31.8467 78.4906 32.328 78.1866 32.784C77.8826 33.24 77.4582 33.6073 76.9136 33.886C76.3689 34.152 75.7419 34.285 75.0326 34.285ZM84.9178 34.285C84.0818 34.285 83.3534 34.133 82.7328 33.829C82.1248 33.525 81.6561 33.107 81.3268 32.575C80.9974 32.043 80.8328 31.4413 80.8328 30.77V24.975H79.5028V24.5H80.8328V23.55C80.8328 22.41 81.4028 21.84 82.5428 21.84H83.8728V24.5H86.5328V24.975H83.8728V30.77C83.8728 31.9353 83.9931 32.7333 84.2338 33.164C84.4744 33.5947 84.8291 33.81 85.2978 33.81C85.7538 33.81 86.1528 33.5883 86.4948 33.145C86.8368 32.7017 87.0078 32.1 87.0078 31.34H87.4828C87.4828 32.2773 87.2484 33.0057 86.7798 33.525C86.3111 34.0317 85.6904 34.285 84.9178 34.285Z" fill="#01055B"/>
</svg>
